<?xml version="1.0" encoding="UTF-8"?>
<svg version="1.1" xmlns="http://www.w3.org/2000/svg" width="1434" height="995">
<path d="M0 0 C0.94617188 0.84691406 1.89234375 1.69382812 2.8671875 2.56640625 C4.43506787 3.97463922 5.99972264 5.386488 7.55859375 6.8046875 C8.95473373 8.06009657 10.35758596 9.30833142 11.77954102 10.53442383 C16.74116145 14.81585627 21.4426742 19.2907887 26.0625 23.9375 C26.73087891 24.60201172 27.39925781 25.26652344 28.08789062 25.95117188 C32.59708606 30.46913154 36.84486301 35.1562792 41 40 C41.845625 40.96421875 42.69125 41.9284375 43.5625 42.921875 C101.65124587 110.31971476 135.45883499 195.31425729 151.0625 282.1875 C151.28187225 283.40090561 151.28187225 283.40090561 151.50567627 284.63882446 C153.19583695 294.08686378 154.50027269 303.40375657 155 313 C154.34 313 153.68 313 153 313 C151.37109375 311.19921875 151.37109375 311.19921875 149.4375 308.6875 C148.72335937 307.77226562 148.00921875 306.85703125 147.2734375 305.9140625 C146.52320313 304.95242188 145.77296875 303.99078125 145 303 C143.5265163 301.18287699 142.04733872 299.37035626 140.5625 297.5625 C139.81097656 296.64597656 139.05945313 295.72945313 138.28515625 294.78515625 C137.53105469 293.86605469 136.77695312 292.94695312 136 292 C134.49971683 290.16689838 132.99971592 288.33356573 131.5 286.5 C130.7575 285.5925 130.015 284.685 129.25 283.75 C103 251.66666667 76.75 219.58333333 50.5 187.5 C49.75105469 186.58476562 49.00210937 185.66953125 48.23046875 184.7265625 C46.79500065 182.97182216 45.36006204 181.21664845 43.92578125 179.4609375 C39.29676126 173.79659141 34.65173148 168.14570178 30 162.5 C28.20804226 160.32432437 26.41621256 158.14854344 24.62451172 155.97265625 C23.6185542 154.7511148 22.61240698 153.52972951 21.60595703 152.30859375 C16.63881388 146.2794033 11.75787513 140.19594672 7 134 C-10.43214417 160.14821626 -11.9336578 206.35056781 -6.47607422 236.51757812 C-6.02950637 238.69208412 -5.53103142 240.84460888 -5 243 C-4.80664062 243.7852002 -4.61328125 244.57040039 -4.4140625 245.37939453 C0.46138362 264.39589155 8.07465503 282.66431136 19 299 C19.4036377 299.60424805 19.80727539 300.20849609 20.22314453 300.83105469 C25.59560431 308.77952391 31.4465378 315.98105824 38 323 C39.21375054 324.39112536 40.42241253 325.78671325 41.625 327.1875 C47.27909818 333.66046757 53.43125918 339.46682574 60 345 C60.53737793 345.45648926 61.07475586 345.91297852 61.62841797 346.38330078 C71.91457226 355.08354543 82.61312636 362.80657122 94 370 C94.68642578 370.43940918 95.37285156 370.87881836 96.08007812 371.33154297 C136.07590159 396.74756072 183.42390818 406.26683361 229.83203125 395.96875 C247.2758662 391.79660879 264.24811604 385.50001601 280.05371094 377.03417969 C282.07832031 375.95838374 284.11859091 374.91833841 286.1640625 373.8828125 C305.88466783 363.8145438 324.51020432 351.34673645 340.67578125 336.171875 C342.65065878 334.32644323 344.66242492 332.58930007 346.75 330.875 C381.08812295 301.56988798 396.37703477 251.39660807 400 208 C400.4883434 201.6719401 400.7979753 195.34331161 401 189 C401.02336426 188.28779297 401.04672852 187.57558594 401.07080078 186.84179688 C401.6179243 166.99822465 400.19814263 146.71819733 398 127 C397.34 127 396.68 127 396 127 C394.1317347 129.0021475 392.37158112 131.02025921 390.625 133.125 C389.53400641 134.41939917 388.44285631 135.71366643 387.3515625 137.0078125 C386.7937207 137.67329102 386.23587891 138.33876953 385.66113281 139.02441406 C383.12950263 142.03528288 380.56442325 145.0170683 378 148 C376.99981202 149.16650551 375.99981267 150.33317279 375 151.5 C345 186.5 345 186.5 343.49926758 188.25073242 C342.50154805 189.41481977 341.50398886 190.57904456 340.5065918 191.7434082 C337.97301257 194.70069887 335.43649863 197.65538369 332.89453125 200.60546875 C328.30393447 205.93835322 323.74238602 211.28185945 319.3125 216.75 C315.76254679 221.12507747 312.04436179 225.30549192 308.25 229.46875 C305.92137947 232.0884481 303.70437053 234.7751531 301.5 237.5 C297.88967558 241.96276213 294.11572071 246.22719533 290.25 250.46875 C287.92137947 253.0884481 285.70437053 255.7751531 283.5 258.5 C280.5918662 262.0947765 277.61458668 265.58260628 274.5 269 C270.67951323 273.1959484 267.08730959 277.53401389 263.51953125 281.9453125 C260.01170333 286.19821394 256.38160005 290.34051048 252.75170898 294.48925781 C248.83030012 298.98910205 245.09875791 303.5851475 241.48828125 308.33984375 C240.99714844 308.88769531 240.50601563 309.43554688 240 310 C239.34 310 238.68 310 238 310 C237.67094327 301.22515386 238.87921707 292.67126077 240.0625 284 C240.17226166 283.18965302 240.28202332 282.37930603 240.39511108 281.54440308 C252.69337737 191.78187639 288.06880229 105.02272212 381.6171875 6.88671875 C383.88374607 5.09205024 386.00034044 3.20904921 388.125 1.25 C444.14618544 -49.04859123 519.84558718 -76.4027298 594.98193359 -72.859375 C636.73455366 -70.58466176 686.27535093 -62.16870547 722 -39 C719.80132931 -29.82079094 716.49874249 -21.17629693 713 -12.4375 C712.41592675 -10.96845981 711.83194372 -9.49938375 711.24804688 -8.03027344 C686.16508817 54.89692244 656.54768398 115.61319605 621.03704834 173.31262207 C620.03471093 174.94352195 619.03608672 176.57670214 618.03759766 178.20996094 C608.87599093 193.187073 599.19045054 207.70404421 589 222 C588.40380859 222.83853516 587.80761719 223.67707031 587.19335938 224.54101562 C580.32491512 234.18458887 573.29363014 243.67390923 566 253 C565.1194081 254.13902648 564.23921007 255.27835756 563.359375 256.41796875 C558.19344113 263.08228322 552.87278253 269.57629771 547.34912109 275.94750977 C544.24152255 279.5338629 541.22123771 283.17371591 538.25 286.875 C535.07833928 290.78518822 531.76879947 294.39049472 528.1171875 297.85546875 C526.37405005 299.62111905 524.79382579 301.40778992 523.19140625 303.296875 C517.80171537 309.50290336 511.91219871 315.2364797 506.09399414 321.03637695 C504.0673702 323.05764268 502.04614453 325.08419574 500.02539062 327.11132812 C493.85399486 333.28624182 487.69107051 339.38312642 481 345 C479.80766551 346.04433407 478.6175722 347.09123225 477.4296875 348.140625 C469.73720406 354.8842653 461.91997935 361.40279474 453.79785156 367.62304688 C452.5864287 368.55086123 451.37748749 369.48192373 450.17089844 370.41601562 C434.22663183 382.74758342 417.44842352 393.91341133 400 404 C399.21689453 404.45584473 398.43378906 404.91168945 397.62695312 405.38134766 C310.43286521 456.07752713 214.07431338 475.99939385 115.12890625 450.6484375 C84.44289751 442.50414384 55.56556307 430.77348573 27 417 C25.90445801 416.47680176 24.80891602 415.95360352 23.68017578 415.41455078 C-19.16723998 394.88336411 -58.59512238 368.01225964 -93.734375 336.046875 C-95.81761127 334.16477879 -97.93218933 332.32837688 -100.0625 330.5 C-103.82283914 327.23145571 -107.29823448 323.72019122 -110.79296875 320.171875 C-112.73632275 318.25947708 -114.7227379 316.49795836 -116.8125 314.75 C-121.08036377 311.09548192 -124.79249438 306.98986162 -128.56640625 302.84008789 C-131.4127572 299.71154002 -134.29420804 296.65304511 -137.3125 293.6875 C-141.08709894 289.95921516 -144.55497888 286.03239062 -148 282 C-148.92931468 280.92285532 -149.85903544 279.84606091 -150.7890625 278.76953125 C-188.32431721 235.25057002 -220.51557675 187.86683212 -249 138 C-249.89380371 136.44104004 -249.89380371 136.44104004 -250.80566406 134.85058594 C-280.34974713 83.07343554 -304.77387519 28.7243202 -325.00439453 -27.31152344 C-325.6309824 -29.0035258 -326.28462019 -30.68599303 -326.97607422 -32.35253906 C-328.62940931 -36.35830175 -329.47866564 -38.86314787 -328 -43 C-325.97241211 -44.35864258 -325.97241211 -44.35864258 -323.27734375 -45.39453125 C-321.77627075 -45.98560669 -321.77627075 -45.98560669 -320.24487305 -46.58862305 C-319.15343994 -46.99250244 -318.06200684 -47.39638184 -316.9375 -47.8125 C-315.80932861 -48.24409424 -314.68115723 -48.67568848 -313.51879883 -49.12036133 C-310.02252774 -50.44270178 -306.51484607 -51.72793205 -303 -53 C-301.98228516 -53.37092773 -300.96457031 -53.74185547 -299.91601562 -54.12402344 C-276.28775446 -62.63240129 -251.8912264 -68.66172921 -227 -72 C-226.13906738 -72.11714355 -225.27813477 -72.23428711 -224.39111328 -72.35498047 C-141.62403214 -83.04844286 -61.51175303 -55.42796735 0 0 Z " fill="#FEFBE7" transform="translate(521,180)"/>
<path d="M0 0 C-2.88653597 33.64753122 -15.41922395 65.91653989 -37 92 C-37.78246094 92.95390625 -38.56492187 93.9078125 -39.37109375 94.890625 C-44.659789 101.0372013 -50.63653745 106.00600572 -57 111 C-57.74378906 111.63292969 -58.48757813 112.26585937 -59.25390625 112.91796875 C-87.58296008 136.81290981 -124.88103705 151.19870965 -162 151 C-162.66 150.67 -163.32 150.34 -164 150 C-160.10956205 107.90197736 -141.04122041 68.87615239 -108.7265625 41.41064453 C-79.04208249 17.15768561 -38.79105849 -0.61573109 0 0 Z " fill="#FEFBE7" transform="translate(910,73)"/>
<path d="M0 0 C36.51310012 -0.65396597 74.418175 14.8848129 103 37 C103.928125 37.70511719 104.85625 38.41023438 105.8125 39.13671875 C138.57332699 64.89777602 157.24872645 101.71216833 163.73828125 142.5546875 C164.00599088 145.05597448 164.04955105 147.48641034 164 150 C152.01304867 155.99347566 127.26754105 147.53611577 115.29321289 143.6237793 C105.41899489 140.23126454 96.16669344 135.97238411 87 131 C85.83210937 130.38511719 84.66421875 129.77023438 83.4609375 129.13671875 C69.16114026 121.34123109 56.70196111 111.26203776 45 100 C44.29746094 99.360625 43.59492187 98.72125 42.87109375 98.0625 C16.44757257 73.2937852 4.66839734 35.84218499 0 1 C0 0.67 0 0.34 0 0 Z " fill="#FEFBE7" transform="translate(521,73)"/>
<path d="M0 0 C1.18579102 1.30664062 1.18579102 1.30664062 2.50390625 3.15625 C2.99286377 3.84082275 3.48182129 4.52539551 3.9855957 5.23071289 C4.50597412 5.97957764 5.02635254 6.72844238 5.5625 7.5 C6.36723755 8.65326782 6.36723755 8.65326782 7.18823242 9.82983398 C24.32369887 34.75113392 36.91513977 64.43524213 38 95 C38.05994141 96.40765625 38.05994141 96.40765625 38.12109375 97.84375 C39.0362022 140.47703777 24.92343838 185.45154064 -4.625 216.71484375 C-6.66290554 218.67565747 -8.68843686 220.3786953 -11 222 C-33.06974222 196.83164068 -47.84045687 161.57633593 -49 128 C-49.03996094 126.97648437 -49.07992187 125.95296875 -49.12109375 124.8984375 C-49.98313967 80.7819698 -33.70361386 35.41086526 -4.3984375 2.39453125 C-2 0 -2 0 0 0 Z " fill="#FEFBE7" transform="translate(725,0)"/>
<path d="M0 0 C20.46 0 40.92 0 62 0 C62 1.32 62 2.64 62 4 C57.71 4 53.42 4 49 4 C49.4650293 5.31206421 49.4650293 5.31206421 49.93945312 6.65063477 C51.46316146 10.95334682 52.98228919 15.25766913 54.5 19.5625 C54.78234497 20.36312866 55.06468994 21.16375732 55.35559082 21.98864746 C59.09405138 32.60110229 62.77459904 43.23189582 66.390625 53.88671875 C66.93626099 55.49426781 66.93626099 55.49426781 67.49291992 57.1342926 C69.29405406 62.44530405 71.08998923 67.75802897 72.88085938 73.07250977 C73.54033339 75.02230873 74.19983711 76.97209764 74.859375 78.921875 C75.16296936 79.82745651 75.46656372 80.73303802 75.77935791 81.6660614 C76.05809753 82.48879044 76.33683716 83.31151947 76.62402344 84.15917969 C76.86683044 84.88030945 77.10963745 85.60143921 77.35980225 86.34442139 C77.87581823 88.01064705 77.87581823 88.01064705 79 89 C93.0976832 51.11492803 93.0976832 51.11492803 85.6796875 12.7890625 C85.17163574 11.73412598 84.66358398 10.67918945 84.14013672 9.59228516 C83 7 83 7 83 4 C79.37 4 75.74 4 72 4 C72 2.68 72 1.36 72 0 C91.47 0 110.94 0 131 0 C131 1.32 131 2.64 131 4 C127.7 4 124.4 4 121 4 C121.40010284 5.27214607 121.40010284 5.27214607 121.80828857 6.56999207 C124.33861952 14.61554969 126.86856195 22.66122936 129.39808273 30.70704174 C130.6981216 34.84211396 131.99830355 38.97714106 133.29882812 43.11206055 C134.55706496 47.11254865 135.81490554 51.11316115 137.07248688 55.11385536 C137.54910818 56.62987901 138.02586531 58.14585997 138.50276947 59.66179466 C141.36649825 68.76509191 144.20658038 77.87482514 147 87 C149.11417163 83.31473583 150.0482289 79.38136951 151.06298828 75.29394531 C151.25835175 74.52282913 151.45371521 73.75171295 151.65499878 72.95722961 C152.29784306 70.41528381 152.93410333 67.87173881 153.5703125 65.328125 C154.01545399 63.56254026 154.46100605 61.79705899 154.9069519 60.03167725 C156.07826277 55.390125 157.24399328 50.74718878 158.40856934 46.10394287 C159.5984411 41.36402009 160.7935822 36.62542665 161.98828125 31.88671875 C164.33068195 22.59243778 166.66670109 13.29657012 169 4 C163.06 4 157.12 4 151 4 C151 2.68 151 1.36 151 0 C163.54 0 176.08 0 189 0 C189 1.32 189 2.64 189 4 C185.04 4 181.08 4 177 4 C176.67461998 5.43033066 176.67461998 5.43033066 176.34266663 6.88955688 C173.43521616 19.52758661 170.13991945 32.05408301 166.80859375 44.5859375 C166.21595692 46.82210232 165.62351787 49.05831957 165.03126526 51.29458618 C163.48429211 57.13343317 161.93444906 62.97151463 160.3840332 68.80944824 C159.12135706 73.56589748 157.86074323 78.32289212 156.60023403 83.079916 C155.0870321 88.79043635 153.57295568 94.50072467 152.05859375 100.2109375 C151.7736801 101.28530437 151.48876644 102.35967125 151.19521904 103.4665947 C150.38247644 106.53042338 149.56915243 109.59409707 148.75561523 112.65771484 C148.5202153 113.54523438 148.28481537 114.43275391 148.0422821 115.34716797 C146.38829148 121.57219662 144.69958397 127.78726149 143 134 C136.73 134 130.46 134 124 134 C122.82642944 130.42599365 122.82642944 130.42599365 121.62915039 126.77978516 C119.04813331 118.92028101 116.46542423 111.06133365 113.88187504 103.20266151 C112.31504512 98.43648253 110.74879124 93.67011583 109.18383789 88.90332031 C107.67443987 84.3058151 106.16354956 79.70880283 104.65160942 75.11213303 C104.07413646 73.35558027 103.49720765 71.59884853 102.92082405 69.84193802 C102.11539034 67.38715505 101.30804969 64.93300721 100.50024414 62.47900391 C100.26072021 61.74748611 100.02119629 61.01596832 99.77441406 60.26228333 C98.5637457 56.56061687 98.5637457 56.56061687 97 53 C89.41 79.73 81.82 106.46 74 134 C67.73 134 61.46 134 55 134 C54.41323486 132.35974854 53.82646973 130.71949707 53.22192383 129.02954102 C50.68137266 121.93053858 48.13741809 114.83275993 45.5918541 107.73555374 C45.07390178 106.29136012 44.55604079 104.84713373 44.03827286 103.40287399 C38.05055167 86.70115771 32.03233411 70.01215998 25.8671875 53.375 C25.62450575 52.71957655 25.381824 52.0641531 25.13178825 51.38886833 C22.59110258 44.52746137 20.0410322 37.66966886 17.4777832 30.81665039 C16.64521559 28.5770338 15.81277058 26.33737163 14.98046875 24.09765625 C14.60441498 23.10036499 14.22836121 22.10307373 13.84091187 21.07556152 C11.74719288 15.42447154 10.16728025 9.9145487 9 4 C6.03 4 3.06 4 0 4 C0 2.68 0 1.36 0 0 Z " fill="#FEFBE7" transform="translate(2,807)"/>
<path d="M0 0 C10.56275227 -0.06991141 21.12544831 -0.12301825 31.68838596 -0.15543652 C36.5946687 -0.17100585 41.50079162 -0.19208195 46.40698242 -0.22631836 C51.15324889 -0.2592266 55.89936291 -0.27691843 60.64573479 -0.28463173 C62.44477674 -0.29011937 64.24381159 -0.30083293 66.04278755 -0.31719017 C98.16431496 -0.5972937 98.16431496 -0.5972937 109.61328125 9.41015625 C115.58581136 16.01693735 116.53473339 22.79698218 116.4375 31.3125 C116.42847656 32.24658691 116.41945313 33.18067383 116.41015625 34.14306641 C116.18362486 43.13353107 114.90872196 49.55404016 108.25 55.9375 C104.38196387 59.01172275 100.68982101 60.51489001 96 62 C94.65649221 62.64591721 93.32023372 63.30775356 92 64 C92.58007812 64.23074219 93.16015625 64.46148438 93.7578125 64.69921875 C105.25325838 69.49847256 105.25325838 69.49847256 108.11328125 75.23168945 C110.95264473 82.6171863 111.61877417 89.25360115 111.6875 97.125 C111.73007248 99.35683008 111.77558911 101.58860618 111.82421875 103.8203125 C111.85781494 105.3966748 111.85781494 105.3966748 111.89208984 107.00488281 C111.9872623 114.22105541 111.9872623 114.22105541 114 121 C115.98 121 117.96 121 120 121 C121.91539047 116.03739743 123.60961435 111.13373162 125 106 C126.32 106 127.64 106 129 106 C128.68942844 114.16803198 127.95050044 122.57255987 122.28515625 128.921875 C116.1427848 134.37598918 110.81526326 134.21029868 102.875 134.25 C101.36292969 134.2809375 101.36292969 134.2809375 99.8203125 134.3125 C92.45978113 134.35063747 85.59109697 133.86568339 79.66015625 129.1328125 C73.34546953 121.19699593 71.92829631 114.73779636 71.7890625 104.58203125 C71.76097697 103.14777538 71.7323124 101.71353075 71.703125 100.27929688 C71.66211247 98.05265841 71.62516353 95.82622588 71.59863281 93.59936523 C71.48385081 84.70277043 70.96828239 76.49468035 68 68 C61.82592371 66.28497881 56.54485587 65.65448559 50 65 C50 85.79 50 106.58 50 128 C54.29 128 58.58 128 63 128 C63 129.32 63 130.64 63 132 C42.21 132 21.42 132 0 132 C0 130.68 0 129.36 0 128 C4.29 128 8.58 128 13 128 C13 87.08 13 46.16 13 4 C8.71 4 4.42 4 0 4 C0 2.68 0 1.36 0 0 Z M50 4 C50 22.81 50 41.62 50 61 C60.97407673 61.50959884 60.97407673 61.50959884 69.6875 56.48828125 C77.15708142 48.49798382 77.05454861 37.4187843 77 27 C76.53624716 19.86703971 75.96897555 13.39488774 71 8 C64.13902836 3.02579556 58.88427329 4 50 4 Z " fill="#FEFBE7" transform="translate(1068,807)"/>
<path d="M0 0 C19.47 0 38.94 0 59 0 C59 1.32 59 2.64 59 4 C55.37 4 51.74 4 48 4 C48 23.14 48 42.28 48 62 C48.66 62 49.32 62 50 62 C50.25885986 61.41895508 50.51771973 60.83791016 50.78442383 60.23925781 C52.09484176 57.82528848 53.54846882 56.15002879 55.44921875 54.171875 C56.13306641 53.45386719 56.81691406 52.73585938 57.52148438 51.99609375 C58.23626953 51.25488281 58.95105469 50.51367188 59.6875 49.75 C64.36410658 44.86968582 68.96471574 39.95892107 73.38989258 34.84863281 C75.71007907 32.18472802 78.10266443 29.5947632 80.5 27 C84.74028736 22.39501898 88.90295146 17.73262887 93 13 C94.31176715 11.49935908 95.62425786 9.99935031 96.9375 8.5 C97.948125 7.345 98.95875 6.19 100 5 C96.04 4.67 92.08 4.34 88 4 C88 2.68 88 1.36 88 0 C98.89 0 109.78 0 121 0 C121 1.32 121 2.64 121 4 C120.06994141 3.82984375 120.06994141 3.82984375 119.12109375 3.65625 C114.83427695 3.40665368 111.58434596 3.74560612 108.11962891 6.48876953 C103.39531426 11.00659567 99.2058477 16.00537633 95 21 C91.06526872 25.54003431 87.08840176 30.04053959 83.0625 34.5 C82.29035156 35.3559375 81.51820313 36.211875 80.72265625 37.09375 C80.15417969 37.7228125 79.58570313 38.351875 79 39 C80.58637028 44.38954273 82.98886244 49.16133552 85.55859375 54.12890625 C86.24307083 55.46564644 86.24307083 55.46564644 86.94137573 56.82939148 C89.46806299 61.75865409 92.01392054 66.67800666 94.55737305 71.59863281 C95.61406326 73.64503065 96.67045793 75.69158112 97.7265625 77.73828125 C98.25512344 78.76174652 98.78368439 79.78521179 99.32826233 80.83969116 C102.33393821 86.68300856 105.26510275 92.5542672 108.10771179 98.47862244 C109.76578586 101.933373 111.44973572 105.37520837 113.13528442 108.81661987 C113.91619792 110.43081817 114.68370204 112.05157684 115.43722534 113.67874146 C118.99559373 122.38742482 118.99559373 122.38742482 125.76318359 128.18554688 C128.32792416 128.46125761 130.4672077 128.45077066 133 128 C133 129.32 133 130.64 133 132 C112.54 132 92.08 132 71 132 C71 130.68 71 129.36 71 128 C73.64 127.67 76.28 127.34 79 127 C68.73739427 107.0990591 68.73739427 107.0990591 58.375 87.25 C57.99875488 86.53287842 57.62250977 85.81575684 57.23486328 85.0769043 C54.56232753 80.00629321 51.78541826 75.01375287 49 70 C48.67 89.14 48.34 108.28 48 128 C51.63 128 55.26 128 59 128 C59 129.32 59 130.64 59 132 C39.53 132 20.06 132 0 132 C0 130.68 0 129.36 0 128 C3.63 128 7.26 128 11 128 C11 87.08 11 46.16 11 4 C7.37 4 3.74 4 0 4 C0 2.68 0 1.36 0 0 Z " fill="#FEFBE7" transform="translate(801,807)"/>
<path d="M0 0 C4.0441389 1.00654124 7.3651318 1.02127289 11.515625 0.875 C11.845625 0.215 12.175625 -0.445 12.515625 -1.125 C13.835625 -1.125 15.155625 -1.125 16.515625 -1.125 C17.59432846 12.87888241 17.6256424 26.8350871 17.515625 40.875 C15.13793945 40.56201172 15.13793945 40.56201172 12.515625 39.875 C11.00463433 37.56478273 9.85547593 35.47856217 8.703125 33 C3.05776868 21.68504102 -4.28027325 8.96686294 -16.3203125 3.59765625 C-22.9573049 1.38133207 -28.98934343 1.311811 -35.51953125 3.87109375 C-42.40094338 7.38704388 -46.65503547 15.11758392 -49.171875 22.1875 C-57.06336363 48.40329273 -58.16055331 89.84619131 -46.06640625 114.80078125 C-42.71936922 120.7462892 -39.65979229 124.69891952 -33.109375 127.125 C-26.55123821 128.48185589 -21.25794841 128.61084162 -15.484375 124.875 C-13.2177165 119.17292985 -13.15949889 112.74263125 -13.0703125 106.68359375 C-13.05094635 105.85287857 -13.0315802 105.02216339 -13.0116272 104.16627502 C-12.95249885 101.54844998 -12.90571696 98.93057934 -12.859375 96.3125 C-12.82113357 94.52276873 -12.7820784 92.73305464 -12.7421875 90.94335938 C-12.64685357 86.58738148 -12.56258081 82.23131769 -12.484375 77.875 C-16.774375 77.875 -21.064375 77.875 -25.484375 77.875 C-25.484375 76.225 -25.484375 74.575 -25.484375 72.875 C-7.004375 72.875 11.475625 72.875 30.515625 72.875 C30.515625 74.525 30.515625 76.175 30.515625 77.875 C27.875625 77.875 25.235625 77.875 22.515625 77.875 C22.515625 95.365 22.515625 112.855 22.515625 130.875 C17.515625 129.875 17.515625 129.875 14.515625 127.875 C7.65810275 126.97023137 1.54359275 128.47500663 -4.984375 130.375 C-24.78721649 135.56030065 -47.95050066 135.36688787 -66.24609375 125.28125 C-80.34126726 116.42564361 -88.20858496 103.982524 -91.94140625 87.76171875 C-96.38873659 64.117279 -93.95248249 39.67005005 -80.34375 19.40234375 C-71.76874738 7.74682548 -58.36215619 -0.53670056 -43.98242188 -2.84375 C-29.2749008 -4.49963978 -14.21405142 -4.28205733 0 0 Z " fill="#FEFBE7" transform="translate(727.484375,808.125)"/>
<path d="M0 0 C33 0 66 0 100 0 C100.99 19.305 100.99 19.305 102 39 C100.35 39 98.7 39 97 39 C96.50371094 37.94941406 96.00742187 36.89882813 95.49609375 35.81640625 C87.67333039 19.23722098 87.67333039 19.23722098 73 9 C64.48223072 6.29152842 64.48223072 6.29152842 49 6 C49 24.81 49 43.62 49 63 C62.75220789 61.07322026 62.75220789 61.07322026 72 53 C74.6854906 48.21752681 76.8066517 43.36378659 78 38 C79.32 38 80.64 38 82 38 C82 56.81 82 75.62 82 95 C80.68 95 79.36 95 78 95 C77.70867187 94.0821875 77.41734375 93.164375 77.1171875 92.21875 C74.34158282 83.90939259 71.75029347 76.39306677 64.375 71.125 C59.41358639 69.47119546 54.15863223 68.85977204 49 68 C49 87.8 49 107.6 49 128 C66.52129483 126.90491907 78.65510855 125.04257175 90.75 112.3125 C95.90493899 106.0729521 99.08412395 98.48818872 102 91 C103.65 91 105.3 91 107 91 C106.88095895 95.83819585 106.75666534 100.67621904 106.62768555 105.51416016 C106.58460506 107.15702734 106.54291343 108.79993159 106.50268555 110.44287109 C106.44432515 112.81619397 106.38082725 115.18933479 106.31640625 117.5625 C106.29969376 118.28679199 106.28298126 119.01108398 106.26576233 119.75732422 C106.24581711 120.45744629 106.22587189 121.15756836 106.20532227 121.87890625 C106.18977798 122.4829126 106.1742337 123.08691895 106.15821838 123.70922852 C105.9203691 127.15293932 105.42815735 130.57474122 105 134 C70.35 134 35.7 134 0 134 C0 132.02 0 130.04 0 128 C3.96 128 7.92 128 12 128 C12 87.74 12 47.48 12 6 C8.04 6 4.08 6 0 6 C0 4.02 0 2.04 0 0 Z " fill="#FEFBE7" transform="translate(195,806)"/>
<path d="M0 0 C17.82 0 35.64 0 54 0 C63.875 19.3125 63.875 19.3125 66.92138672 25.2746582 C71.71716726 34.65075569 76.5573321 44.00099761 81.47518921 53.31367493 C83.99399319 58.08388622 86.49429764 62.86288068 88.96875 67.65625 C89.85433594 69.37134766 89.85433594 69.37134766 90.7578125 71.12109375 C91.64464932 72.84107995 92.53144067 74.56108998 93.41699219 76.28173828 C94.30768853 78.01154441 95.20068194 79.74016715 96.09375 81.46875 C96.60615234 82.46326172 97.11855469 83.45777344 97.64648438 84.48242188 C99.02030048 87.13289898 99.02030048 87.13289898 101 90 C101.33 61.62 101.66 33.24 102 4 C98.37 4 94.74 4 91 4 C91 2.68 91 1.36 91 0 C99.91 0 108.82 0 118 0 C118 1.32 118 2.64 118 4 C114.37 4 110.74 4 107 4 C107 46.24 107 88.48 107 132 C98.09 132 89.18 132 80 132 C74.32753414 122.07318474 68.90720493 112.05969222 63.65087891 101.90698242 C60.22566416 95.30690263 56.71077502 88.76406861 53.125 82.25 C48.00294643 72.9364091 43.10017734 63.5191254 38.23339844 54.07006836 C33.90974566 45.6973472 29.46088838 37.40156911 24.90625 29.15234375 C24.44992187 28.32476563 23.99359375 27.4971875 23.5234375 26.64453125 C23.13075684 25.93659424 22.73807617 25.22865723 22.33349609 24.49926758 C20.4856393 21.03597391 18.75550436 17.51100872 17 14 C16.67 51.62 16.34 89.24 16 128 C19.63 128 23.26 128 27 128 C27 129.32 27 130.64 27 132 C18.09 132 9.18 132 0 132 C0 130.68 0 129.36 0 128 C3.63 128 7.26 128 11 128 C11 87.08 11 46.16 11 4 C7.37 4 3.74 4 0 4 C0 2.68 0 1.36 0 0 Z " fill="#FEFBE7" transform="translate(507,807)"/>
<path d="M0 0 C17.82 0 35.64 0 54 0 C63.875 19.3125 63.875 19.3125 66.92138672 25.2746582 C71.71716726 34.65075569 76.5573321 44.00099761 81.47518921 53.31367493 C83.99399319 58.08388622 86.49429764 62.86288068 88.96875 67.65625 C89.85433594 69.37134766 89.85433594 69.37134766 90.7578125 71.12109375 C91.64464932 72.84107995 92.53144067 74.56108998 93.41699219 76.28173828 C94.30768853 78.01154441 95.20068194 79.74016715 96.09375 81.46875 C96.60615234 82.46326172 97.11855469 83.45777344 97.64648438 84.48242188 C99.02030048 87.13289898 99.02030048 87.13289898 101 90 C101.33 61.62 101.66 33.24 102 4 C98.37 4 94.74 4 91 4 C91 2.68 91 1.36 91 0 C99.91 0 108.82 0 118 0 C118 1.32 118 2.64 118 4 C114.37 4 110.74 4 107 4 C107 46.24 107 88.48 107 132 C98.09 132 89.18 132 80 132 C74.32753414 122.07318474 68.90720493 112.05969222 63.65087891 101.90698242 C60.22566416 95.30690263 56.71077502 88.76406861 53.125 82.25 C48.00294643 72.9364091 43.10017734 63.5191254 38.23339844 54.07006836 C33.90974566 45.6973472 29.46088838 37.40156911 24.90625 29.15234375 C24.44992187 28.32476563 23.99359375 27.4971875 23.5234375 26.64453125 C23.13075684 25.93659424 22.73807617 25.22865723 22.33349609 24.49926758 C20.4856393 21.03597391 18.75550436 17.51100872 17 14 C16.67 51.62 16.34 89.24 16 128 C19.63 128 23.26 128 27 128 C27 129.32 27 130.64 27 132 C18.09 132 9.18 132 0 132 C0 130.68 0 129.36 0 128 C3.63 128 7.26 128 11 128 C11 87.08 11 46.16 11 4 C7.37 4 3.74 4 0 4 C0 2.68 0 1.36 0 0 Z " fill="#FEFBE7" transform="translate(314,807)"/>
<path d="M0 0 C1.58542603 -0.00193359 1.58542603 -0.00193359 3.20288086 -0.00390625 C11.20893097 0.102833 18.40391349 1.26899679 26.06640625 3.5 C29.7608785 4.4084103 32.8365337 4.67470562 36.625 4.375 C37.285 3.715 37.945 3.055 38.625 2.375 C39.615 2.375 40.605 2.375 41.625 2.375 C42.5060264 6.98392817 42.82819865 11.49987153 42.94140625 16.1796875 C42.96218735 16.9036673 42.98296844 17.62764709 43.00437927 18.37356567 C43.06928853 20.66562239 43.12848437 22.95778474 43.1875 25.25 C43.23074112 26.81251053 43.27435711 28.37501072 43.31835938 29.9375 C43.42490896 33.74989426 43.52633795 37.5623938 43.625 41.375 C41.975 41.375 40.325 41.375 38.625 41.375 C38.15191406 40.49199219 37.67882813 39.60898437 37.19140625 38.69921875 C29.62298186 24.84285193 20.57452944 10.99565559 4.625 6.25 C-2.73512065 4.77033891 -9.56921032 5.76259229 -16.3125 9.0625 C-19.83836155 11.72488525 -22.04068514 14.18143902 -23.375 18.375 C-24.17289048 24.17783986 -23.98254801 28.56493599 -20.375 33.375 C-20.375 34.035 -20.375 34.695 -20.375 35.375 C-11.11488796 40.03110134 -2.06804309 43.50694384 7.9375 46.25 C23.18202941 50.61488221 38.52602237 55.27362896 47 69.6875 C53.4847836 82.60420212 52.84603152 96.78264851 48.625 110.375 C46.93960588 113.97341331 44.95244647 117.1606238 42.625 120.375 C41.861875 121.4475 41.09875 122.52 40.3125 123.625 C30.93717445 133.21835637 19.95626405 136.47471172 6.85083008 136.84619141 C-4.46266321 136.94722767 -15.05193308 135.74577943 -26.07421875 133.25 C-29.57184247 132.48356419 -32.77818596 132.01810682 -36.375 132.375 C-38.01176257 134.3350281 -38.01176257 134.3350281 -39.375 136.375 C-40.695 136.375 -42.015 136.375 -43.375 136.375 C-44.4085775 130.19959159 -44.69934412 124.06421413 -44.9375 117.8125 C-44.9799585 116.75289062 -45.02241699 115.69328125 -45.06616211 114.6015625 C-45.35998396 106.85459778 -45.49784266 99.12773689 -45.375 91.375 C-43.725 91.375 -42.075 91.375 -40.375 91.375 C-39.91351562 92.24640625 -39.45203125 93.1178125 -38.9765625 94.015625 C-30.66154524 109.35592145 -19.81488463 123.77564514 -2.671875 129.7265625 C4.76188118 131.82520795 12.49931407 132.14877654 19.5234375 128.34765625 C20.91622417 127.39308783 22.27419448 126.38810414 23.625 125.375 C24.285 125.375 24.945 125.375 25.625 125.375 C28.98995241 117.92403395 30.6031878 111.54479142 27.78515625 103.6640625 C23.62717466 95.46009882 13.82584417 92.17061992 5.61474609 89.33569336 C2.52089016 88.36609968 -0.58135691 87.42942355 -3.6875 86.5 C-33.31341158 77.26957537 -33.31341158 77.26957537 -40.75 63.3125 C-45.77805403 52.57502013 -46.16983134 39.0831596 -43.5 27.6171875 C-40.99813369 21.18146562 -37.34278179 16.13209461 -32.375 11.375 C-31.88 10.89417969 -31.385 10.41335938 -30.875 9.91796875 C-21.92193528 1.86507629 -11.64308316 -0.01472992 0 0 Z " fill="#FEFBE7" transform="translate(1252.375,804.625)"/>
<path d="M0 0 C5.61 0 11.22 0 17 0 C20.28565158 7.7636391 23.37733131 15.54887389 26.23046875 23.48046875 C26.81300163 25.08819908 26.81300163 25.08819908 27.40730286 26.72840881 C28.23881704 29.02402434 29.06908345 31.32009217 29.89819336 33.61657715 C32.10722132 39.73480237 34.3256178 45.84963109 36.54296875 51.96484375 C36.88157236 52.89921705 36.88157236 52.89921705 37.22701645 53.85246658 C42.11208277 67.3327414 47.04887194 80.79386033 52 94.25 C52.37845062 95.27862152 52.75690125 96.30724304 53.14682007 97.36703491 C53.87766354 99.35336898 54.60856255 101.33968261 55.33952332 103.32597351 C56.32862901 106.01457853 57.31671662 108.70355594 58.3046875 111.39257812 C59.32515433 114.1694797 60.3512064 116.94399122 61.3828125 119.71679688 C61.75148438 120.71259766 62.12015625 121.70839844 62.5 122.734375 C62.7990625 123.53584961 63.098125 124.33732422 63.40625 125.16308594 C64 127 64 127 64 129 C66.97 129 69.94 129 73 129 C73 130.32 73 131.64 73 133 C52.21 133 31.42 133 10 133 C10 131.68 10 130.36 10 129 C14.29 129 18.58 129 23 129 C18.71 116.13 14.42 103.26 10 90 C-1.88 90 -13.76 90 -26 90 C-26.92683594 92.64773438 -27.85367187 95.29546875 -28.80859375 98.0234375 C-29.70516679 100.58181745 -30.60219485 103.14003742 -31.49926758 105.69824219 C-32.12344223 107.47899964 -32.7471422 109.25992354 -33.37036133 111.04101562 C-34.26519626 113.59809364 -35.16172527 116.15457214 -36.05859375 118.7109375 C-36.3377916 119.50994476 -36.61698944 120.30895203 -36.90464783 121.13217163 C-38.88612829 126.77225659 -38.88612829 126.77225659 -40 129 C-35.71 129 -31.42 129 -27 129 C-27 130.32 -27 131.64 -27 133 C-36.57 133 -46.14 133 -56 133 C-56 131.68 -56 130.36 -56 129 C-53.03 129 -50.06 129 -47 129 C-46.82771378 128.32784454 -46.65542755 127.65568909 -46.47792053 126.96316528 C-44.72670638 120.31630704 -42.62252731 113.91519592 -40.18359375 107.4921875 C-39.81478592 106.50823502 -39.44597809 105.52428253 -39.06599426 104.51051331 C-38.27311173 102.3965073 -37.47806404 100.2833123 -36.68103027 98.17086792 C-34.5420335 92.50164459 -32.41853919 86.82661154 -30.29296875 81.15234375 C-29.8555838 79.98604935 -29.41819885 78.81975494 -28.96755981 77.61811829 C-23.95342559 64.23468142 -19.03912331 50.81469974 -14.13717651 37.38983154 C-9.56468798 24.86813672 -4.87384248 12.40788434 0 0 Z M-8 38 C-10.28084152 44.38959921 -12.55925106 50.78006169 -14.8359375 57.17114258 C-15.61141305 59.34712566 -16.38745394 61.52290736 -17.1640625 63.69848633 C-18.27751488 66.81799928 -19.38896017 69.93822087 -20.5 73.05859375 C-21.0249707 74.52733192 -21.0249707 74.52733192 -21.56054688 76.02574158 C-22.04104492 77.37702904 -22.04104492 77.37702904 -22.53125 78.75561523 C-22.81548828 79.55281479 -23.09972656 80.35001434 -23.39257812 81.17137146 C-24.05253949 82.83702316 -24.05253949 82.83702316 -24 84 C-13.44 84 -2.88 84 8 84 C6.17484886 77.30777917 4.35542489 70.79337802 2.08203125 64.26953125 C1.81992355 63.5082341 1.55781586 62.74693695 1.2877655 61.96257019 C0.46596938 59.57806154 -0.36065908 57.19526339 -1.1875 54.8125 C-1.75227694 53.17654405 -2.31673253 51.54047711 -2.88085938 49.90429688 C-4.25020747 45.9349097 -5.62388597 41.96704636 -7 38 C-7.33 38 -7.66 38 -8 38 Z " fill="#FEFBE7" transform="translate(1360,806)"/>
<path d="M0 0 C5.61 0 11.22 0 17 0 C20.28565158 7.7636391 23.37733131 15.54887389 26.23046875 23.48046875 C26.81300163 25.08819908 26.81300163 25.08819908 27.40730286 26.72840881 C28.23881704 29.02402434 29.06908345 31.32009217 29.89819336 33.61657715 C32.10722132 39.73480237 34.3256178 45.84963109 36.54296875 51.96484375 C36.88157236 52.89921705 36.88157236 52.89921705 37.22701645 53.85246658 C42.11208277 67.3327414 47.04887194 80.79386033 52 94.25 C52.37845062 95.27862152 52.75690125 96.30724304 53.14682007 97.36703491 C53.87766354 99.35336898 54.60856255 101.33968261 55.33952332 103.32597351 C56.32862901 106.01457853 57.31671662 108.70355594 58.3046875 111.39257812 C59.32515433 114.1694797 60.3512064 116.94399122 61.3828125 119.71679688 C61.75148438 120.71259766 62.12015625 121.70839844 62.5 122.734375 C62.7990625 123.53584961 63.098125 124.33732422 63.40625 125.16308594 C64 127 64 127 64 129 C66.97 129 69.94 129 73 129 C73 130.32 73 131.64 73 133 C52.21 133 31.42 133 10 133 C10 131.68 10 130.36 10 129 C14.29 129 18.58 129 23 129 C18.71 116.13 14.42 103.26 10 90 C-1.88 90 -13.76 90 -26 90 C-26.92683594 92.64773438 -27.85367188 95.29546875 -28.80859375 98.0234375 C-29.70516679 100.58181745 -30.60219485 103.14003742 -31.49926758 105.69824219 C-32.12344223 107.47899964 -32.7471422 109.25992354 -33.37036133 111.04101562 C-34.26519626 113.59809364 -35.16172527 116.15457214 -36.05859375 118.7109375 C-36.3377916 119.50994476 -36.61698944 120.30895203 -36.90464783 121.13217163 C-38.88612829 126.77225659 -38.88612829 126.77225659 -40 129 C-35.71 129 -31.42 129 -27 129 C-27 130.32 -27 131.64 -27 133 C-36.57 133 -46.14 133 -56 133 C-56 131.68 -56 130.36 -56 129 C-53.03 129 -50.06 129 -47 129 C-46.82771378 128.32784454 -46.65542755 127.65568909 -46.47792053 126.96316528 C-44.72670638 120.31630704 -42.62252731 113.91519592 -40.18359375 107.4921875 C-39.81478592 106.50823502 -39.44597809 105.52428253 -39.06599426 104.51051331 C-38.27311173 102.3965073 -37.47806404 100.2833123 -36.68103027 98.17086792 C-34.5420335 92.50164459 -32.41853919 86.82661154 -30.29296875 81.15234375 C-29.8555838 79.98604935 -29.41819885 78.81975494 -28.96755981 77.61811829 C-23.95342559 64.23468142 -19.03912331 50.81469974 -14.13717651 37.38983154 C-9.56468798 24.86813672 -4.87384248 12.40788434 0 0 Z M-8 38 C-10.28084152 44.38959921 -12.55925106 50.78006169 -14.8359375 57.17114258 C-15.61141305 59.34712566 -16.38745394 61.52290736 -17.1640625 63.69848633 C-18.27751488 66.81799928 -19.38896017 69.93822087 -20.5 73.05859375 C-21.0249707 74.52733192 -21.0249707 74.52733192 -21.56054688 76.02574158 C-22.04104492 77.37702904 -22.04104492 77.37702904 -22.53125 78.75561523 C-22.81548828 79.55281479 -23.09972656 80.35001434 -23.39257812 81.17137146 C-24.05253949 82.83702316 -24.05253949 82.83702316 -24 84 C-13.44 84 -2.88 84 8 84 C6.17484886 77.30777917 4.35542489 70.79337802 2.08203125 64.26953125 C1.81992355 63.5082341 1.55781586 62.74693695 1.2877655 61.96257019 C0.46596938 59.57806154 -0.36065908 57.19526339 -1.1875 54.8125 C-1.75227694 53.17654405 -2.31673253 51.54047711 -2.88085938 49.90429688 C-4.25020747 45.9349097 -5.62388597 41.96704636 -7 38 C-7.33 38 -7.66 38 -8 38 Z " fill="#FEFBE7" transform="translate(993,806)"/>
<path d="M0 0 C19.47 0 38.94 0 59 0 C59 1.32 59 2.64 59 4 C55.37 4 51.74 4 48 4 C48 44.92 48 85.84 48 128 C51.63 128 55.26 128 59 128 C59 129.32 59 130.64 59 132 C39.53 132 20.06 132 0 132 C0 130.68 0 129.36 0 128 C3.63 128 7.26 128 11 128 C11 87.08 11 46.16 11 4 C7.37 4 3.74 4 0 4 C0 2.68 0 1.36 0 0 Z " fill="#FEFBE7" transform="translate(440,807)"/>
</svg>
